<svg aria-hidden="true" style="position:absolute;width:0;height:0" xmlns="http://www.w3.org/2000/svg" overflow="hidden"><defs><symbol id="icon-menu" viewBox="0 0 32 32"><path fill="var(--color1, #fff)" d="M6.4 11.733V9.6h19.2v2.133H6.4zm0 5.334h19.2v-2.133H6.4v2.133zm0 5.333h19.2v-2.133H6.4V22.4z"/></symbol><symbol id="icon-logo" viewBox="0 0 39 32"><path fill="var(--color1, #fff)" d="M21.578 8.435l-.655-.5a.499.499 0 00-.7.07l-.001.001-9.066 10.412.14.155 2.245-2.07a.345.345 0 01.129-.665h.007c.152 0 .281.1.324.238l.001.002 2.96-2.745a.253.253 0 01.32.001l.15.11a.25.25 0 00.335-.039l3.871-4.341a.413.413 0 00-.059-.625l-.001-.001z"/><path fill="var(--color1, #fff)" d="M25.839 11.366a20.014 20.014 0 01-6.419 3.043l-.142.033c-2.101.559-4.544.938-7.056 1.057l-.08.003c.049.355.136.704.26 1.04 1.36 1.23 11.602-.87 13.602-3.301.425-.505-.165-1.875-.165-1.875zm-12.162 5.136a.34.34 0 11.34-.34v.006c0 .185-.15.335-.335.335h-.006zm-9.676-5.856l.08-.345 1.3.295c.108.198.174.416.195.64.025.238.01.478-.045.71-.069.337-.22.632-.432.872l.002-.002a1.733 1.733 0 01-.758.497l-.012.003a1.801 1.801 0 01-.538.081c-.144 0-.285-.017-.42-.048l.012.002a1.756 1.756 0 01-.836-.441l.001.001a1.65 1.65 0 01-.472-.774l-.003-.012a1.886 1.886 0 01.004-1.013l-.003.013c.054-.245.15-.479.285-.69.129-.192.297-.349.493-.461l.007-.004.18.275a1.437 1.437 0 00-.659.961l-.001.009a1.54 1.54 0 00.018.796L2.396 12c.067.243.201.463.385.635.19.184.427.31.685.365.25.07.515.07.765 0 .248-.083.458-.223.624-.404l.001-.001a1.57 1.57 0 00.35-.705 1.524 1.524 0 00-.064-.965l.004.01-1.145-.29zM6.831 7.5L5.666 9.055l.5.895-.23.31-1.85-3.376.215-.295 3.766.81-.235.31-1-.21zm-.33-.08l-2-.45 1 1.795 1-1.345zm0-3.145l.3-.225L8.706 6.6l1.57-1.175.19.255-1.865 1.395-2.1-2.8zm3.151-2.086l.335-.15 1.32 2.89 1.785-.81.13.29-2.12.965-1.45-3.186zm6.591 1.151l.075.315-2.41.565-.8-3.411 2.34-.545.07.31-2 .465.285 1.21 1.76-.415.075.31-1.765.41.3 1.265 2.07-.48zm3.435.125l-.835-1.1a2.615 2.615 0 01-.28 0l-.94.03.035 1.11h-.37L17.173.004l1.33-.005a1.572 1.572 0 011.065.288l-.005-.003a1.1 1.1 0 01.41.857v.014-.001c.015.247-.05.493-.185.7a1.174 1.174 0 01-.572.423l-.008.002.875 1.17-.405.015zm-.35-1.646a.794.794 0 00.255-.658V1.147a.802.802 0 00-.294-.622l-.001-.001a1.204 1.204 0 00-.79-.204h.005l-.95.035.06 1.75.93-.03a1.19 1.19 0 00.787-.257l-.003.002zm2.996.715l-.18 1.195-.365-.055.185-1.175-1.035-2.5.39.06.885 2.13 1.5-1.765.35.075-1.73 2.035zm4.945-.21l.435.565-.19.15-.435-.58-.275.655-.21-.09.28-.655-.72.095v-.24l.71-.08-.44-.565.195-.15.385.57.27-.66.215.09-.255.67.72-.1v.245l-.685.08zm1.671 4.031a1.363 1.363 0 01-.214-.599l-.001-.006.295-.13c.022.198.087.389.19.56.112.192.258.361.43.5.172.165.396.279.644.314l.006.001a.544.544 0 00.469-.194l.001-.001a.451.451 0 00.117-.302l-.002-.039v.002a.918.918 0 00-.122-.349l.002.004a5.1 5.1 0 00-.314-.457l.009.012a4.493 4.493 0 01-.348-.527l-.012-.023a.987.987 0 01-.13-.469v-.001a.74.74 0 01.195-.5.918.918 0 01.409-.283l.006-.002a.997.997 0 01.563.002l-.007-.002c.245.082.457.204.637.362l-.002-.002c.154.128.29.276.405.44.106.152.186.321.235.5l-.285.15a1.74 1.74 0 00-.224-.476l.004.006a1.822 1.822 0 00-.331-.342l-.004-.003a1.113 1.113 0 00-.64-.305h-.005a.537.537 0 00-.469.204l-.001.001a.427.427 0 00-.114.342v-.002a.803.803 0 00.12.355c.07.115.17.265.305.445.134.17.254.351.36.54.08.135.129.296.135.468v.002a.74.74 0 01-.195.5.891.891 0 01-.414.283l-.006.002a.942.942 0 01-.562-.002l.007.002a1.847 1.847 0 01-.642-.362l.002.002a2.284 2.284 0 01-.494-.609l-.006-.012zm5.031.73l-.705-1 .26-.185 1.625 2.32-.26.185-.705-1-2.61 1.825-.21-.305 2.605-1.84zm-1.121 4.111c.094-.312.268-.577.498-.778l.002-.002c.224-.201.501-.347.808-.413l.012-.002a1.836 1.836 0 01.953.038l-.013-.004c.304.102.562.275.764.498l.001.002c.208.238.358.533.423.858l.002.012a1.882 1.882 0 01-.003.979l.003-.013c-.097.311-.27.575-.498.779l-.002.001a1.85 1.85 0 01-1.798.387l.013.004a1.68 1.68 0 01-.763-.498l-.002-.002a1.877 1.877 0 01-.423-.853l-.002-.012a1.922 1.922 0 01.028-.994l-.004.014zm.655 1.59a1.372 1.372 0 001.057.466c.391 0 .748-.145 1.02-.383l-.002.002c.185-.17.321-.385.395-.625a1.606 1.606 0 00-.327-1.473l.002.002a1.422 1.422 0 00-.635-.402l-.01-.003a1.478 1.478 0 00-.781.003l.011-.002a1.376 1.376 0 00-.681.346l.001-.001c-.182.167-.319.38-.392.62l-.003.01a1.48 1.48 0 00.002.786l-.002-.011c.058.259.179.484.346.666l-.001-.001zm-1.035 4.216l1.295-.5c0-.09.03-.18.055-.275l.245-.905-1.06-.275.095-.355 3.381.905-.34 1.265c-.081.38-.289.703-.577.928l-.004.003a1.07 1.07 0 01-.958.138l.008.002a1.086 1.086 0 01-.855-1.055l-1.38.5.095-.375zm1.676.14a.901.901 0 001.259.333l-.004.002a1.2 1.2 0 00.424-.698l.001-.008.24-.9-1.695-.455-.24.9a1.213 1.213 0 00.017.833l-.003-.008zm-3.471 3.08l-.255-.195 1.5-1.975 2.79 2.115-1.45 1.915-.255-.195 1.225-1.615-1-.755-1.095 1.445-.25-.19 1.12-1.445-1.035-.785-1.295 1.68zm-1.17 3.986l-.715.04v-.24l.715-.005-.385-.595.195-.125.38.6.31-.67.215.115-.34.63.715-.04v.245h-.725l.385.595-.195.125-.38-.6-.33.65-.21-.12.365-.605zm-6.501-.4l.605.335c.206-.39.562-.677.989-.788l.011-.002a1.56 1.56 0 01.621-.065h-.006c.189.015.36.08.503.182l-.003-.002c.133.1.232.24.28.4.06.198.05.41-.03.6a2.51 2.51 0 01-.5.695c.165.088.318.198.455.325a.862.862 0 01.205.345.668.668 0 01-.131.586l.001-.001a.963.963 0 01-.553.384l-.007.001a.871.871 0 01-.62 0 .626.626 0 01-.359-.421l-.001-.004a.674.674 0 01.037-.504l-.002.004c.121-.237.269-.439.445-.615l-1.205-.67a2.382 2.382 0 00-.03.715h-.305a2.41 2.41 0 01.104-.887l-.005.017-.63-.35.13-.28zm.87.5l1.325.735c.17-.163.312-.353.42-.563l.005-.012a.634.634 0 000-.45.542.542 0 00-.346-.374l-.004-.001a.99.99 0 00-.647.002l.007-.002a1.205 1.205 0 00-.777.643l-.003.007.02.015zm1.88 2a.451.451 0 00.039-.373l.001.003a.62.62 0 00-.16-.26 2.112 2.112 0 00-.403-.269l-.012-.006a2.663 2.663 0 00-.389.489l-.006.011a.493.493 0 00-.04.374l-.001-.004a.421.421 0 00.218.264l.002.001a.56.56 0 00.395 0 .6.6 0 00.334-.233l.001-.002.02.005zm-8.846 1.355l.07-3.501h.355l-.055 2.8 1.42-2.33h.175l1.33 2.37.05-2.785h.355l-.065 3.501h-.305l-1.47-2.615-1.555 2.565-.305-.005zm-1.741-3.66a1.7 1.7 0 01.452 1.742l.003-.012a1.786 1.786 0 01-.475.815 1.686 1.686 0 01-.794.438l-.011.002a1.934 1.934 0 01-.984-.033l.014.004a1.88 1.88 0 01-.841-.456l.001.001a1.675 1.675 0 01-.462-.778l-.003-.012a1.84 1.84 0 01.5-1.76c.212-.212.479-.369.778-.447l.012-.003a1.908 1.908 0 01.979.034l-.014-.003c.331.086.616.249.846.471l-.001-.001zm-1.705-.175a1.346 1.346 0 00-.645.36 1.439 1.439 0 00-.378.655l-.002.01c-.07.25-.07.515 0 .765.059.244.186.465.365.64.183.179.41.312.664.383l.011.003a1.592 1.592 0 00.787-.002l-.011.002c.245-.06.469-.185.65-.36.178-.179.31-.404.378-.655l.002-.01a1.416 1.416 0 00-.003-.78l.002.01a1.415 1.415 0 00-.37-.64 1.503 1.503 0 00-.67-.378l-.01-.002a1.416 1.416 0 00-.78.003l.01-.002zm-3.785-2.326l.135 1.375c.086.037.169.078.25.125l.815.47.55-.97.325.185-1.75 3.015-1.14-.655a1.6 1.6 0 01-.746-.79l-.004-.01a1.091 1.091 0 01.113-.954l-.003.004c.116-.219.301-.395.525-.5a1.138 1.138 0 01.728-.053l-.008-.002-.145-1.47.355.23zm-.571 1.581a.905.905 0 00-.675.762v.004a.887.887 0 00.032.365l-.002-.006c.117.259.32.469.575.595l.805.465.875-1.5-.805-.465a1.227 1.227 0 00-.741-.247l-.068.002h.003v.025zm-2.39-3.926l.225-.225 1.725 1.775-2.5 2.44-1.665-1.72.23-.225 1.415 1.455.855-.865-1.24-1.29.24-.23 1.265 1.3.93-.905-1.48-1.51zm-3.715-1.965l.12-.69.235.035-.135.71.665-.245.08.22-.675.23.555.47-.16.18-.535-.5-.125.71-.24-.045.14-.71-.67.24-.075-.195.67-.235-.555-.465.165-.18.54.47z"/></symbol><symbol id="icon-instagram" viewBox="0 0 32 32"><path fill="var(--color2, #ff6c00)" d="M31.988 9.414c-.074-1.702-.349-2.871-.743-3.884a7.862 7.862 0 00-1.851-2.839l-.001-.001a7.893 7.893 0 00-2.78-1.828l-.054-.018C25.539.45 24.377.176 22.675.101 20.962.019 20.418 0 16.069 0c-4.347 0-4.891.019-6.599.094-1.7.074-2.871.349-3.882.743a7.844 7.844 0 00-2.84 1.851l-.001.001a7.888 7.888 0 00-1.826 2.78l-.018.054C.508 6.543.234 7.705.159 9.407.077 11.12.058 11.664.058 16.013c0 4.347.019 4.891.094 6.599.075 1.702.351 2.871.744 3.884a7.938 7.938 0 001.85 2.839l.001.001a7.875 7.875 0 002.834 1.844c1.02.395 2.184.671 3.884.744 1.708.075 2.253.094 6.599.094 4.348 0 4.893-.019 6.599-.094 1.702-.074 2.871-.349 3.884-.743 2.159-.851 3.836-2.527 4.667-4.631l.019-.055c.394-1.02.669-2.184.744-3.884.075-1.708.093-2.253.093-6.599s-.006-4.891-.08-6.599zm-2.882 13.074c-.07 1.564-.333 2.408-.551 2.971a5.342 5.342 0 01-3.006 3.026l-.036.013c-.56.219-1.412.482-2.97.551-1.689.075-2.195.094-6.468.094-4.271 0-4.785-.019-6.468-.094-1.564-.069-2.408-.331-2.971-.551a4.947 4.947 0 01-1.837-1.193l-.001-.001A4.985 4.985 0 013.613 25.5l-.011-.034c-.218-.564-.48-1.414-.549-2.971-.075-1.689-.094-2.197-.094-6.468 0-4.273.019-4.787.094-6.468.069-1.564.331-2.408.549-2.971A4.883 4.883 0 014.801 4.75l.002-.002A4.978 4.978 0 016.61 3.565l.034-.011c.56-.219 1.412-.48 2.97-.551 1.689-.074 2.197-.093 6.468-.093 4.278 0 4.785.019 6.468.093 1.564.069 2.408.331 2.971.551a4.926 4.926 0 011.838 1.194c.532.52.938 1.145 1.196 1.841.218.56.48 1.412.549 2.97.075 1.689.094 2.195.094 6.468 0 4.271-.019 4.771-.094 6.462z"/><path fill="var(--color2, #ff6c00)" d="M16.069 7.787a8.228 8.228 0 00-8.224 8.226 8.228 8.228 0 0016.452.008v-.009a8.227 8.227 0 00-8.226-8.226zm0 13.561a5.336 5.336 0 01.001-10.672h.001a5.337 5.337 0 010 10.674zM26.541 7.462a1.92 1.92 0 11-3.842 0 1.92 1.92 0 113.842 0z"/></symbol><symbol id="icon-twitter" viewBox="0 0 32 32"><path d="M32.02 6.082a13.295 13.295 0 01-3.715 1.029l-.068.007a6.56 6.56 0 002.875-3.582l.013-.046a12.875 12.875 0 01-4.079 1.574l-.084.014a6.563 6.563 0 00-11.353 4.486v.004c0 .52.043 1.021.152 1.497-5.458-.266-10.286-2.882-13.53-6.865a6.542 6.542 0 00-.903 3.315v.001a6.577 6.577 0 002.915 5.455 6.458 6.458 0 01-2.996-.824l.033.017v.072a6.597 6.597 0 005.216 6.444l.043.008a6.41 6.41 0 01-1.663.215h-.061.003c-.419 0-.844-.024-1.242-.112.85 2.6 3.263 4.512 6.133 4.572a13.103 13.103 0 01-8.127 2.802h-.013.001-.062a12.51 12.51 0 01-1.57-.099l.061.006c2.828 1.847 6.291 2.946 10.01 2.946h.063-.003c12.08 0 18.684-10.006 18.684-18.68 0-.288-.01-.57-.024-.849a13.186 13.186 0 003.26-3.357l.03-.047z"/></symbol><symbol id="icon-facebook" viewBox="0 0 32 32"><path d="M21.341 5.315h2.925V.224A36.533 36.533 0 0020.156 0h-.157.008c-4.215 0-7.104 2.651-7.104 7.525v4.483H8.254V17.7h4.649v14.321h5.701V17.702h4.464l.708-5.692h-5.171V8.086c0-1.644.443-2.77 2.736-2.77z"/></symbol><symbol id="icon-linkedin" viewBox="0 0 32 32"><path d="M32.012 32.02h.008V20.275c0-5.744-1.236-10.17-7.952-10.17-3.229 0-5.395 1.771-6.281 3.452h-.093v-2.915h-6.369v21.377h6.631V21.435c0-2.787.528-5.483 3.98-5.483 3.401 0 3.452 3.181 3.452 5.661v10.408h6.623zM.528 10.642h6.639V32.02H.528V10.642zM3.846 0A3.846 3.846 0 000 3.846c0 2.121 1.723 3.881 3.846 3.881 2.121 0 3.844-1.758 3.844-3.881S5.969.002 3.846 0z"/></symbol><symbol id="icon-map" viewBox="0 0 32 32"><path fill="none" stroke="var(--color3, #9da4bd)" stroke-linejoin="round" stroke-linecap="round" stroke-width="1.333" d="M26.667 13.819C26.667 21.454 16 28 16 28S5.333 21.453 5.333 13.819C5.333 8.396 10.109 4 16 4s10.667 4.396 10.667 9.819v0z"/><path fill="none" stroke="var(--color3, #9da4bd)" stroke-linejoin="round" stroke-linecap="round" stroke-width="1.333" d="M16 18.667a4 4 0 000-8v0a4 4 0 000 8v0z"/></symbol><symbol id="icon-phone" viewBox="0 0 32 32"><path fill="none" stroke="var(--color3, #9da4bd)" stroke-linejoin="round" stroke-linecap="round" stroke-width="1.333" d="M26.667 21.337v3.226a2.147 2.147 0 01-2.347 2.138l.008.001c-3.481-.388-6.626-1.563-9.338-3.343l.081.05a21.113 21.113 0 01-6.386-6.353l-.05-.083A20.982 20.982 0 015.35 7.768l-.008-.095a2.145 2.145 0 012.136-2.338h3.239c1.079 0 1.972.797 2.123 1.834l.001.012c.136 1.029.387 2.04.751 3.013a2.144 2.144 0 01-.483 2.264l-1.363 1.361c1.555 2.7 3.736 4.881 6.353 6.392l.083.044 1.363-1.361a2.14 2.14 0 012.278-.477l-.015-.005c.973.363 1.984.613 3.013.751a2.148 2.148 0 011.847 2.125l-.001.056v-.003z"/></symbol><symbol id="icon-mail" viewBox="0 0 32 32"><path fill="none" stroke="var(--color3, #9da4bd)" stroke-linejoin="round" stroke-linecap="round" stroke-width="1.333" d="M6.4 6.667h19.2C26.92 6.667 28 7.716 28 9v14c0 1.283-1.08 2.333-2.4 2.333H6.4C5.08 25.333 4 24.282 4 23V9c0-1.284 1.08-2.333 2.4-2.333z"/><path fill="none" stroke="var(--color3, #9da4bd)" stroke-linejoin="round" stroke-linecap="round" stroke-width="1.333" d="M26.667 9.333l-10.667 8-10.667-8"/></symbol><symbol id="icon-close" viewBox="0 0 32 32"><path d="M26.667 7.303l-1.97-1.97-7.808 7.808-7.808-7.808-1.97 1.97 7.808 7.808-7.808 7.808 1.97 1.97 7.808-7.808 7.808 7.808 1.97-1.97-7.808-7.808 7.808-7.808z"/></symbol></defs></svg>